<svg xmlns="http://www.w3.org/2000/svg" viewBox="0 0 64 64" width="256" height="256" role="img" aria-label="Cadran"><title>Cadran</title><g stroke-linecap="butt" stroke-linejoin="miter"><circle cx="32" cy="32" r="27" fill="none" stroke="#ffffff" stroke-width="2.5"/><path d="M32 6.25 L32 15.25" fill="none" stroke="#ffffff" stroke-width="4"/><path d="M44.88 9.7 L43.13 12.73" fill="none" stroke="#ffffff" stroke-width="1.5" opacity="0.7"/><path d="M54.3 19.13 L51.27 20.88" fill="none" stroke="#ffffff" stroke-width="1.5" opacity="0.7"/><path d="M57.75 32 L50.75 32" fill="none" stroke="#ffffff" stroke-width="3"/><path d="M54.3 44.88 L51.27 43.13" fill="none" stroke="#ffffff" stroke-width="1.5" opacity="0.7"/><path d="M44.88 54.3 L43.13 51.27" fill="none" stroke="#ffffff" stroke-width="1.5" opacity="0.7"/><path d="M32 57.75 L32 50.75" fill="none" stroke="#ffffff" stroke-width="3"/><path d="M19.13 54.3 L20.88 51.27" fill="none" stroke="#ffffff" stroke-width="1.5" opacity="0.7"/><path d="M9.7 44.88 L12.73 43.13" fill="none" stroke="#ffffff" stroke-width="1.5" opacity="0.7"/><path d="M6.25 32 L13.25 32" fill="none" stroke="#ffffff" stroke-width="3"/><path d="M9.7 19.12 L12.73 20.88" fill="none" stroke="#ffffff" stroke-width="1.5" opacity="0.7"/><path d="M19.12 9.7 L20.87 12.73" fill="none" stroke="#ffffff" stroke-width="1.5" opacity="0.7"/><path d="M32 38 V45" fill="none" stroke="#ffffff" stroke-width="2.5" transform="rotate(-17.5 32 32)"/><path d="M32 8 L35.6 30 L32 38 L28.4 30 Z" fill="#ffffff" transform="rotate(-17.5 32 32)"/><circle cx="32" cy="32" r="3.2" fill="#ffffff"/></g></svg>
