<svg xmlns="http://www.w3.org/2000/svg" viewBox="0 0 327.2 64" width="981.6" height="192" role="img" aria-label="Cadran"><title>Cadran</title><g stroke-linecap="butt" stroke-linejoin="miter"><path d="M6 46 A26 32 0 0 1 58 46" fill="none" stroke="#000000" stroke-width="1.5" stroke-dasharray="2 4" opacity="0.4"/><path d="M4 52 H60" fill="none" stroke="#000000" stroke-width="2.5"/><path d="M32 52 H53.62" fill="none" stroke="#000000" stroke-width="6"/><circle cx="8.57" cy="32.12" r="5" fill="none" stroke="#000000" stroke-width="2.5"/><path d="M32 52 V24 L41 52 Z" fill="#000000"/></g><g transform="translate(86 5.6) scale(1.2)"><g stroke-linecap="butt" stroke-linejoin="miter"><path d="M23.19 22.29 A12 12 0 1 0 23.19 37.71" fill="none" stroke="#000000" stroke-width="5" transform="translate(0.5 0)"/><path d="M26 16 V44" fill="none" stroke="#000000" stroke-width="5" transform="translate(34.5 0)"/><circle cx="14" cy="30" r="12" fill="none" stroke="#000000" stroke-width="5" transform="translate(34.5 0)"/><path d="M26 0 V44" fill="none" stroke="#000000" stroke-width="5" transform="translate(70.5 0)"/><circle cx="14" cy="30" r="12" fill="none" stroke="#000000" stroke-width="5" transform="translate(70.5 0)"/><path d="M2 16 V44" fill="none" stroke="#000000" stroke-width="5" transform="translate(106.5 0)"/><path d="M2 30 A12 12 0 0 1 14 18 H22" fill="none" stroke="#000000" stroke-width="5" transform="translate(106.5 0)"/><path d="M26 16 V44" fill="none" stroke="#000000" stroke-width="5" transform="translate(136.5 0)"/><circle cx="14" cy="30" r="12" fill="none" stroke="#000000" stroke-width="5" transform="translate(136.5 0)"/><path d="M2 16 V44" fill="none" stroke="#000000" stroke-width="5" transform="translate(172.5 0)"/><path d="M2 30 A12 12 0 0 1 26 30 V44" fill="none" stroke="#000000" stroke-width="5" transform="translate(172.5 0)"/></g></g></svg>
