<svg xmlns="http://www.w3.org/2000/svg" viewBox="0 0 266 64" width="532" height="128" role="img" aria-label="estime" style="color:#14171c"><title>estime</title><g stroke-linecap="butt" stroke-linejoin="miter"><circle cx="10" cy="52" r="4" fill="#14171c"/><path d="M10 52 L30 52 L32.74 47.06" fill="none" stroke="#14171c" stroke-width="4"/><path d="M40.51 33.07 L50 16" fill="none" stroke="#14171c" stroke-width="4" stroke-dasharray="4 5"/><circle cx="36.63" cy="40.07" r="8" fill="none" stroke="var(--accent, #2f54e0)" stroke-width="4"/></g><g transform="translate(88 2)" stroke-linecap="butt" stroke-linejoin="miter"><g transform="translate(0 0)"><path d="M2 30 H26 A12 12 0 1 0 23.19 37.71" fill="none" stroke="#14171c" stroke-width="4"/></g><g transform="translate(36 0)"><path d="M14 24 A6 6 0 1 0 8 30 A6 6 0 1 1 2 36" fill="none" stroke="#14171c" stroke-width="4"/></g><g transform="translate(60 0)"><path d="M6 4 V34 A8 8 0 0 0 14 42 H18" fill="none" stroke="#14171c" stroke-width="4"/><path d="M0 18 H16" fill="none" stroke="#14171c" stroke-width="4"/></g><g transform="translate(86 0)"><path d="M2 16 V44" fill="none" stroke="#14171c" stroke-width="4"/><rect x="0" y="6" width="4" height="4" fill="#14171c"/></g><g transform="translate(98 0)"><path d="M2 16 V44" fill="none" stroke="#14171c" stroke-width="4"/><path d="M2 28 A10 10 0 0 1 22 28 V44" fill="none" stroke="#14171c" stroke-width="4"/><path d="M22 28 A10 10 0 0 1 42 28 V44" fill="none" stroke="#14171c" stroke-width="4"/></g><g transform="translate(150 0)"><path d="M2 30 H26 A12 12 0 1 0 23.19 37.71" fill="none" stroke="#14171c" stroke-width="4"/></g></g></svg>
